<?xml version="1.0" encoding="UTF-8" standalone="no"?>
<!DOCTYPE svg PUBLIC "-//W3C//DTD SVG 1.1//EN"
 "http://www.w3.org/Graphics/SVG/1.1/DTD/svg11.dtd">
<!-- Generated by graphviz version 2.36.0 (20140111.2315)
 -->
<!-- Title: inheritance14758ed1e6 Pages: 1 -->
<svg width="368pt" height="26pt"
 viewBox="0.00 0.00 368.00 26.00" xmlns="http://www.w3.org/2000/svg" xmlns:xlink="http://www.w3.org/1999/xlink">
<g id="graph0" class="graph" transform="scale(1 1) rotate(0) translate(4 22)">
<title>inheritance14758ed1e6</title>
<polygon fill="white" stroke="none" points="-4,4 -4,-22 364,-22 364,4 -4,4"/>
<!-- AbsorptionSpectrum -->
<g id="node1" class="node"><title>AbsorptionSpectrum</title>
<g id="a_node1"><a xlink:title="A class specialized in representing absorption spectra of the type">
<polygon fill="none" stroke="black" stroke-width="0.5" points="240,-18.5 124,-18.5 124,0.5 240,0.5 240,-18.5"/>
<text text-anchor="middle" x="182" y="-6.5" font-family="Vera Sans, DejaVu Sans, Liberation Sans, Arial, Helvetica, sans" font-size="10.00">AbsorptionSpectrum</text>
</a>
</g>
</g>
<!-- CDESpectrum -->
<g id="node3" class="node"><title>CDESpectrum</title>
<g id="a_node3"><a xlink:title="A class specialized in representing CDE&#45;corrected absorption spectra.">
<polygon fill="none" stroke="black" stroke-width="0.5" points="360,-18.5 276,-18.5 276,0.5 360,0.5 360,-18.5"/>
<text text-anchor="middle" x="318" y="-6.5" font-family="Vera Sans, DejaVu Sans, Liberation Sans, Arial, Helvetica, sans" font-size="10.00">CDESpectrum</text>
</a>
</g>
</g>
<!-- AbsorptionSpectrum&#45;&gt;CDESpectrum -->
<g id="edge2" class="edge"><title>AbsorptionSpectrum&#45;&gt;CDESpectrum</title>
<path fill="none" stroke="black" stroke-width="0.5" d="M240.217,-9C250.393,-9 260.878,-9 270.703,-9"/>
<polygon fill="black" stroke="black" stroke-width="0.5" points="270.776,-10.7501 275.776,-9 270.776,-7.2501 270.776,-10.7501"/>
</g>
<!-- BaseSpectrum -->
<g id="node2" class="node"><title>BaseSpectrum</title>
<g id="a_node2"><a xlink:title="A class to represent spectroscopic data.">
<polygon fill="none" stroke="black" stroke-width="0.5" points="88,-18.5 7.10543e-15,-18.5 7.10543e-15,0.5 88,0.5 88,-18.5"/>
<text text-anchor="middle" x="44" y="-6.5" font-family="Vera Sans, DejaVu Sans, Liberation Sans, Arial, Helvetica, sans" font-size="10.00">BaseSpectrum</text>
</a>
</g>
</g>
<!-- BaseSpectrum&#45;&gt;AbsorptionSpectrum -->
<g id="edge1" class="edge"><title>BaseSpectrum&#45;&gt;AbsorptionSpectrum</title>
<path fill="none" stroke="black" stroke-width="0.5" d="M88.0312,-9C97.7952,-9 108.357,-9 118.739,-9"/>
<polygon fill="black" stroke="black" stroke-width="0.5" points="118.816,-10.7501 123.816,-9 118.816,-7.2501 118.816,-10.7501"/>
</g>
</g>
</svg>
